<?xml version="1.0" encoding="UTF-8"?>
<svg version="1.1" xmlns="http://www.w3.org/2000/svg" width="600" height="600">
<path d="M0 0 C1.40941612 -0.0049926 1.40941612 -0.0049926 2.8473053 -0.01008606 C4.82633989 -0.01511624 6.80538285 -0.0174956 8.78442383 -0.01733398 C11.74640669 -0.01950288 14.7080055 -0.0376524 17.66992188 -0.05664062 C34.29254133 -0.10715976 50.46204135 1.18404509 66.78515625 4.41796875 C68.42411865 4.74003296 68.42411865 4.74003296 70.09619141 5.06860352 C107.6373134 12.70654428 107.6373134 12.70654428 118.17578125 25.53125 C120.71243393 29.53181205 122.1481975 33.81859587 123.71484375 38.26953125 C125.14559613 41.93028389 126.61854259 43.91509876 129.84765625 46.16796875 C136.44915432 48.8791545 143.23241544 50.7777046 150.1015625 52.6875 C152.56796758 53.38031731 155.03435689 54.07319077 157.50073242 54.76611328 C158.80394845 55.13101241 160.10720215 55.49577703 161.41049194 55.8604126 C168.19198022 57.75843597 174.96961452 59.67011585 181.74609375 61.5859375 C182.77003644 61.87536476 182.77003644 61.87536476 183.81466484 62.17063904 C199.02927473 66.47497295 214.18168995 70.98013041 229.32348633 75.53344727 C240.54275895 78.90459543 251.77293301 82.1961424 263.0925293 85.21728516 C263.96562744 85.45366699 264.83872559 85.69004883 265.73828125 85.93359375 C266.47079102 86.12727539 267.20330078 86.32095703 267.95800781 86.52050781 C269.84765625 87.16796875 269.84765625 87.16796875 272.84765625 89.16796875 C273.29301166 91.94770383 273.5436825 94.49759882 273.66015625 97.29296875 C273.71107422 98.02773437 273.76199219 98.7625 273.81445312 99.51953125 C274.34464328 109.72793832 271.12337906 118.00838014 264.3359375 125.62109375 C262.63314535 127.39092496 260.95077722 128.89107387 258.84765625 130.16796875 C258.18765625 130.16796875 257.52765625 130.16796875 256.84765625 130.16796875 C256.76515625 131.13734375 256.68265625 132.10671875 256.59765625 133.10546875 C252.96797736 157.35172374 226.53886716 182.81421021 208.1652832 196.76879883 C189.82322752 209.898991 171.37876062 214.0589624 149.00732422 210.56884766 C141.12547879 209.03332023 133.34405201 207.11653534 125.56738281 205.12158203 C119.94617789 203.6804934 114.30333729 202.33238934 108.66015625 200.98046875 C107.64856445 200.73578857 106.63697266 200.4911084 105.59472656 200.23901367 C85.43388919 195.33645984 85.43388919 195.33645984 64.84765625 193.16796875 C63.99945313 193.11640625 63.15125 193.06484375 62.27734375 193.01171875 C52.21177046 192.6511609 41.14237063 194.27627124 31.84765625 198.16796875 C32.6280426 198.33892059 33.40842896 198.50987244 34.21246338 198.68600464 C41.57046959 200.29884394 48.92732568 201.91678855 56.28294754 203.5404644 C60.06448407 204.37501006 63.84643256 205.20758223 67.62939453 206.03564453 C71.28085982 206.83499936 74.93114769 207.63953757 78.58068085 208.44766617 C79.97250528 208.7549092 81.36474226 209.06028956 82.75739288 209.36376572 C84.709465 209.78948197 86.65994731 210.22246836 88.61035156 210.65576172 C89.72065735 210.90002899 90.83096313 211.14429626 91.97491455 211.39596558 C94.51007565 212.07724939 96.56929739 212.88672115 98.84765625 214.16796875 C99.24609375 216.87109375 99.24609375 216.87109375 98.84765625 220.16796875 C96.7164272 222.07194859 94.86922143 223.43765604 92.47265625 224.91796875 C75.92038797 235.98408036 65.07763723 251.81009407 55.84765625 269.16796875 C55.25339844 270.26367188 54.65914063 271.359375 54.046875 272.48828125 C46.52022465 286.87402982 41.64218986 302.2190719 37.15625 317.77905273 C36.88296875 318.71305908 36.6096875 319.64706543 36.328125 320.609375 C35.97077271 321.85763062 35.97077271 321.85763062 35.60620117 323.13110352 C34.84765625 325.16796875 34.84765625 325.16796875 32.84765625 327.16796875 C29.56412734 327.54873268 27.5895928 327.62634514 24.7421875 325.8671875 C24.05511719 325.20332031 23.36804688 324.53945313 22.66015625 323.85546875 C21.8196875 323.05367188 20.97921875 322.251875 20.11328125 321.42578125 C19.02212551 320.34247042 17.93399794 319.25610704 16.84765625 318.16796875 C16.10064453 317.42256836 15.35363281 316.67716797 14.58398438 315.90917969 C11.16732779 312.49652387 7.75148066 309.08355543 4.3605957 305.64526367 C3.56355225 304.83935791 2.76650879 304.03345215 1.9453125 303.203125 C1.22867432 302.47488525 0.51203613 301.74664551 -0.22631836 300.99633789 C-2.21989407 298.99975848 -2.21989407 298.99975848 -5.15234375 297.16796875 C-5.15234375 296.50796875 -5.15234375 295.84796875 -5.15234375 295.16796875 C-5.7040625 294.9359375 -6.25578125 294.70390625 -6.82421875 294.46484375 C-9.78884223 292.81340919 -11.9612669 290.77339378 -14.40234375 288.41796875 C-15.74039063 287.15726562 -15.74039063 287.15726562 -17.10546875 285.87109375 C-19.15234375 283.16796875 -19.15234375 283.16796875 -19.62109375 280.26953125 C-19.06626186 276.59839359 -17.90363144 273.68944635 -16.40234375 270.29296875 C-3.90832688 240.82720359 -6.33353672 207.84255307 -17.15234375 178.16796875 C-19.41883043 172.96062137 -21.90313822 167.86964234 -24.54492188 162.84277344 C-27.23167815 157.64206056 -28.81566029 154.0488361 -28.15234375 148.16796875 C-23.25399781 145.87928106 -18.11262085 145.04485666 -12.83984375 144.0390625 C-11.83453613 143.84449966 -10.82922852 143.64993683 -9.79345703 143.44947815 C-7.66569197 143.03936972 -5.53742203 142.6318733 -3.40869141 142.22680664 C-0.18992994 141.6126405 3.02613081 140.98557723 6.2421875 140.35742188 C31.48627767 135.48037139 31.48627767 135.48037139 36.84765625 136.16796875 C39.06210758 137.99586776 40.52050526 139.80892614 42.17578125 142.1484375 C45.01816258 145.58187476 48.54718748 146.5098899 52.84765625 147.16796875 C58.20642085 147.07557626 62.76716473 145.67274736 66.84765625 142.16796875 C70.02727597 137.95029672 71.54239045 133.46546787 71.23046875 128.18359375 C70.20707786 122.79512745 68.06272974 119.13506806 63.78515625 115.73046875 C59.23307395 113.30914838 55.98311034 112.82560514 50.84765625 113.16796875 C45.38479562 114.86333929 41.81731666 117.2779979 38.84765625 122.16796875 C37.8937526 124.49973322 37.00519055 126.81728365 36.23046875 129.21484375 C34.10686677 132.21428157 31.27108105 132.47775595 27.84765625 133.16796875 C27.02990723 133.34505371 26.2121582 133.52213867 25.36962891 133.70458984 C22.45031494 134.32234827 19.52563443 134.90519906 16.59765625 135.48046875 C15.51806641 135.69340576 14.43847656 135.90634277 13.32617188 136.12573242 C9.83419023 136.81094105 6.34095506 137.48951028 2.84765625 138.16796875 C1.64044922 138.40515625 0.43324219 138.64234375 -0.81054688 138.88671875 C-4.42271265 139.59415728 -8.03707513 140.28907979 -11.65234375 140.98046875 C-13.32345215 141.30881714 -13.32345215 141.30881714 -15.02832031 141.64379883 C-21.14794915 142.7966849 -26.9352366 143.87167674 -33.15234375 143.16796875 C-35.42578125 141.171875 -35.42578125 141.171875 -37.15234375 138.16796875 C-37.5174707 137.55808105 -37.88259766 136.94819336 -38.25878906 136.31982422 C-39.47191662 134.26872705 -40.62903727 132.1934727 -41.77734375 130.10546875 C-42.17179688 129.39841797 -42.56625 128.69136719 -42.97265625 127.96289062 C-44.04340268 126.03663226 -45.10987382 124.10967829 -46.15234375 122.16796875 C-46.51376465 121.5035376 -46.87518555 120.83910645 -47.24755859 120.15454102 C-48.70248404 116.96006494 -48.6448281 114.61535918 -48.15234375 111.16796875 C-42.83875317 106.83702848 -36.33974876 104.26507178 -30.15234375 101.41796875 C-28.55132812 100.65806641 -28.55132812 100.65806641 -26.91796875 99.8828125 C-25.8815625 99.40457031 -24.84515625 98.92632812 -23.77734375 98.43359375 C-22.37355469 97.78052246 -22.37355469 97.78052246 -20.94140625 97.11425781 C-17.81826541 96.05462074 -15.42949931 95.9081226 -12.15234375 96.16796875 C-9.84375 97.4453125 -9.84375 97.4453125 -7.71484375 99.10546875 C-3.77870015 101.87851149 -1.10586325 103.25642446 3.84765625 103.16796875 C8.61486981 102.29370467 12.53270034 101.00594939 15.78515625 97.29296875 C19.29614931 91.97328229 20.28131424 88.68050938 19.390625 82.3828125 C18.35999525 78.17873287 16.08417209 75.3220502 12.97265625 72.41796875 C7.57963874 69.24560551 2.90751215 68.60602915 -3.15234375 70.16796875 C-9.38817748 72.59888699 -11.47861686 75.61582247 -14.25 81.63671875 C-15.32983324 84.32211754 -15.32983324 84.32211754 -15.46484375 87.98046875 C-16.15234375 91.16796875 -16.15234375 91.16796875 -17.60473633 92.40600586 C-23.07000444 95.68241864 -28.68947574 98.37193821 -34.52734375 100.91796875 C-36.30605985 101.70426814 -38.08470907 102.49071887 -39.86328125 103.27734375 C-40.63978027 103.61733398 -41.4162793 103.95732422 -42.21630859 104.30761719 C-43.54244018 104.89693468 -44.85436992 105.51898184 -46.15234375 106.16796875 C-49.02734375 106.54296875 -49.02734375 106.54296875 -52.15234375 106.16796875 C-56.57445235 101.93084875 -58.03670916 96.52043215 -59.90234375 90.85546875 C-60.37607422 89.45844727 -60.37607422 89.45844727 -60.859375 88.03320312 C-61.63292435 85.74771642 -62.39689099 83.45948757 -63.15234375 81.16796875 C-63.03640869 81.76222656 -62.92047363 82.35648437 -62.80102539 82.96875 C-62.26954936 85.70129641 -61.74217223 88.43461905 -61.21484375 91.16796875 C-60.94124023 92.56982422 -60.94124023 92.56982422 -60.66210938 94 C-60.13914001 96.71944071 -59.64105265 99.44218343 -59.15234375 102.16796875 C-59.0013623 102.94914062 -58.85038086 103.7303125 -58.69482422 104.53515625 C-58.3359375 106.66796875 -58.3359375 106.66796875 -58.15234375 110.16796875 C-60.32660123 113.10010242 -63.12821455 114.23422428 -66.421875 115.65625 C-67.46931885 116.11153076 -68.5167627 116.56681152 -69.59594727 117.03588867 C-70.70768311 117.5126001 -71.81941895 117.98931152 -72.96484375 118.48046875 C-74.095271 118.97973877 -75.22569824 119.47900879 -76.39038086 119.9934082 C-85.84078405 124.14529302 -85.84078405 124.14529302 -90.63671875 125.66015625 C-96.75944994 127.70552278 -100.30251098 129.47728005 -103.4362793 135.32568359 C-104.76662941 138.12086449 -105.96018596 140.96238195 -107.13671875 143.82519531 C-108.98266282 148.08329131 -111.21292939 152.14150954 -113.40234375 156.23046875 C-113.81516602 157.01510498 -114.22798828 157.79974121 -114.65332031 158.6081543 C-115.43884074 160.09959023 -116.23215084 161.58695632 -117.03417969 163.06958008 C-117.76979579 164.45006488 -118.47727975 165.84597544 -119.15332031 167.2565918 C-120.12109375 169.18359375 -120.12109375 169.18359375 -122.15234375 172.16796875 C-124.66796875 172.9296875 -124.66796875 172.9296875 -127.40234375 172.85546875 C-132.80648931 173.04281246 -136.8443334 173.74891292 -141.15234375 177.16796875 C-144.24403126 180.85332194 -147.15234375 185.25671945 -147.15234375 190.16796875 C-146.23390777 194.93508881 -144.97843723 198.88635453 -141.21484375 202.10546875 C-135.40702752 206.01685519 -131.16763906 207.16864901 -124.15234375 206.16796875 C-119.44536108 204.44100412 -116.15386815 201.79468045 -113.58984375 197.48046875 C-111.54301673 192.668151 -111.81895324 188.15984946 -113.15234375 183.16796875 C-114.45132371 180.48882259 -116.03294809 178.28736441 -118.15234375 176.16796875 C-117.7490175 171.11725062 -116.54303768 167.36330975 -114.203125 162.89453125 C-113.60177734 161.73953125 -113.00042969 160.58453125 -112.38085938 159.39453125 C-111.90773315 158.50556152 -111.90773315 158.50556152 -111.42504883 157.59863281 C-110.47391065 155.81001903 -109.53948127 154.01345982 -108.60742188 152.21484375 C-98.37917366 132.73453221 -98.37917366 132.73453221 -89.96484375 129.16796875 C-88.55597744 128.52216191 -87.14712384 127.87632733 -85.73828125 127.23046875 C-84.99803711 126.90175781 -84.25779297 126.57304687 -83.49511719 126.234375 C-81.00837406 125.10243524 -78.56981074 123.89545936 -76.12890625 122.66796875 C-74.44933824 121.83439461 -72.76965289 121.00105685 -71.08984375 120.16796875 C-70.30520752 119.76964844 -69.52057129 119.37132812 -68.7121582 118.9609375 C-63.90710892 116.63370858 -60.49395896 115.71396693 -55.15234375 116.16796875 C-53.10241442 120.53846416 -51.06151142 124.91297195 -49.02880859 129.29150391 C-48.29475562 130.86307247 -47.54739809 132.42841749 -46.796875 133.9921875 C-43.42426683 141.16354567 -43.42426683 141.16354567 -44.15234375 145.16796875 C-46.50688104 147.52250604 -47.61619189 147.64333157 -50.8359375 148.23828125 C-51.76341797 148.41230469 -52.69089844 148.58632813 -53.64648438 148.765625 C-54.61779297 148.93964844 -55.58910156 149.11367188 -56.58984375 149.29296875 C-58.04100586 149.56560547 -58.04100586 149.56560547 -59.52148438 149.84375 C-66.69516565 151.16796875 -66.69516565 151.16796875 -70.15234375 151.16796875 C-70.21421875 151.93109375 -70.27609375 152.69421875 -70.33984375 153.48046875 C-72.1065928 161.49879136 -76.44216976 168.88503463 -80.15234375 176.16796875 C-78.50234375 176.49796875 -76.85234375 176.82796875 -75.15234375 177.16796875 C-74.76046875 175.93046875 -74.36859375 174.69296875 -73.96484375 173.41796875 C-68.7336385 157.7492635 -68.7336385 157.7492635 -65.15234375 154.16796875 C-62.62027604 153.52982914 -60.15493539 152.99831907 -57.58984375 152.54296875 C-56.87054688 152.41108154 -56.15125 152.27919434 -55.41015625 152.14331055 C-50.25514138 151.24524658 -45.39128417 150.88731123 -40.15234375 151.16796875 C-22.70165429 182.72772629 -13.44990289 222.64787409 -23.15234375 258.16796875 C-23.44238281 259.23660156 -23.73242188 260.30523437 -24.03125 261.40625 C-27.31560909 272.22127345 -32.21890776 282.90257025 -41.90625 289.33203125 C-48.10597635 291.63940766 -56.69515124 290.8527601 -62.96484375 289.10546875 C-71.99169958 283.61855638 -79.73536443 277.22104158 -87.32714844 269.91259766 C-89.3046641 268.02237201 -91.31066982 266.16491334 -93.31640625 264.3046875 C-94.70061311 262.9897475 -96.08344982 261.67336352 -97.46484375 260.35546875 C-98.12959717 259.74574219 -98.79435059 259.13601563 -99.47924805 258.5078125 C-100.39444214 257.61835937 -100.39444214 257.61835937 -101.328125 256.7109375 C-101.87380127 256.1955542 -102.41947754 255.6801709 -102.98168945 255.14916992 C-104.79704093 252.07689105 -104.46763045 249.67573598 -104.15234375 246.16796875 C-103.11767578 242.87670898 -103.11767578 242.87670898 -101.66015625 239.4765625 C-101.39836075 238.85713776 -101.13656525 238.23771301 -100.86683655 237.59951782 C-100.0159934 235.59597337 -99.14721733 233.60081504 -98.27734375 231.60546875 C-97.68577598 230.22423164 -97.0950433 228.84263659 -96.50512695 227.46069336 C-91.57092553 215.94822984 -86.44172152 204.52153194 -81.15234375 193.16796875 C-82.14234375 192.50796875 -83.13234375 191.84796875 -84.15234375 191.16796875 C-84.46349121 191.8957251 -84.77463867 192.62348145 -85.09521484 193.37329102 C-87.948204 200.04405081 -90.80542856 206.71296827 -93.66824341 213.3795166 C-95.00457446 216.49172621 -96.33898113 219.60471704 -97.66992188 222.71923828 C-99.03464032 225.91240093 -100.40524184 229.1029733 -101.77734375 232.29296875 C-102.19032715 233.26306885 -102.60331055 234.23316895 -103.02880859 235.23266602 C-103.41246582 236.12139404 -103.79612305 237.01012207 -104.19140625 237.92578125 C-104.52350098 238.70066895 -104.8555957 239.47555664 -105.19775391 240.27392578 C-106.15234375 242.16796875 -106.15234375 242.16796875 -108.15234375 244.16796875 C-111.56289031 244.55841753 -113.5286806 244.52216042 -116.5390625 242.8125 C-117.29832031 242.20792969 -118.05757813 241.60335937 -118.83984375 240.98046875 C-124.00637445 237.14997663 -129.19172345 234.5456123 -135.15234375 232.16796875 C-136.48652344 231.61109375 -136.48652344 231.61109375 -137.84765625 231.04296875 C-161.63411956 222.03194087 -190.27914094 226.8847444 -214.2565918 232.78466797 C-217.28605392 233.39719283 -220.07151789 233.36052037 -223.15234375 233.16796875 C-224.15234375 232.16796875 -224.15234375 232.16796875 -224.45703125 229.3828125 C-224.081176 225.41705778 -223.09830642 224.46846193 -220.27734375 221.73046875 C-214.28218018 215.45340093 -209.75488423 208.48968569 -205.15234375 201.16796875 C-204.59595215 200.2847998 -204.59595215 200.2847998 -204.02832031 199.38378906 C-197.45880814 188.87138909 -191.60537226 177.96076002 -185.71826172 167.05712891 C-184.15629777 164.17526402 -182.58065697 161.30133687 -181 158.4296875 C-176.61240154 150.45054695 -172.2488877 142.48848983 -168.27734375 134.29296875 C-157.75947223 112.67559226 -144.68124335 90.79828816 -129.58984375 72.00390625 C-128.00337097 70.03823589 -128.00337097 70.03823589 -126.27734375 67.23046875 C-123.63214661 63.41827287 -120.58432996 60.10568937 -117.453125 56.6875 C-115.43887426 54.48174155 -113.47507278 52.2447587 -111.52734375 49.98046875 C-83.07127674 17.49637399 -43.05112951 0.0548713 0 0 Z M-88.15234375 176.16796875 C-90.74011583 179.22377849 -90.74011583 179.22377849 -91.15234375 183.16796875 C-89.17234375 184.15796875 -89.17234375 184.15796875 -87.15234375 185.16796875 C-86.16234375 182.52796875 -85.17234375 179.88796875 -84.15234375 177.16796875 C-85.47234375 176.83796875 -86.79234375 176.50796875 -88.15234375 176.16796875 Z M-71.15234375 184.16796875 C-71.44109375 184.93109375 -71.72984375 185.69421875 -72.02734375 186.48046875 C-73.15234375 189.16796875 -73.15234375 189.16796875 -75.15234375 192.16796875 C-73.50234375 192.16796875 -71.85234375 192.16796875 -70.15234375 192.16796875 C-69.16234375 190.18796875 -68.17234375 188.20796875 -67.15234375 186.16796875 C-68.47234375 185.50796875 -69.79234375 184.84796875 -71.15234375 184.16796875 Z " fill="#000000" transform="translate(245.15234375,124.83203125)"/>
<path d="M0 0 C1.40941612 -0.0049926 1.40941612 -0.0049926 2.8473053 -0.01008606 C4.82633989 -0.01511624 6.80538285 -0.0174956 8.78442383 -0.01733398 C11.74640669 -0.01950288 14.7080055 -0.0376524 17.66992188 -0.05664062 C34.29254133 -0.10715976 50.46204135 1.18404509 66.78515625 4.41796875 C68.42411865 4.74003296 68.42411865 4.74003296 70.09619141 5.06860352 C107.6373134 12.70654428 107.6373134 12.70654428 118.17578125 25.53125 C120.71243393 29.53181205 122.1481975 33.81859587 123.71484375 38.26953125 C125.14559613 41.93028389 126.61854259 43.91509876 129.84765625 46.16796875 C136.44915432 48.8791545 143.23241544 50.7777046 150.1015625 52.6875 C152.56796758 53.38031731 155.03435689 54.07319077 157.50073242 54.76611328 C158.80394845 55.13101241 160.10720215 55.49577703 161.41049194 55.8604126 C168.19198022 57.75843597 174.96961452 59.67011585 181.74609375 61.5859375 C182.77003644 61.87536476 182.77003644 61.87536476 183.81466484 62.17063904 C199.02927473 66.47497295 214.18168995 70.98013041 229.32348633 75.53344727 C240.54275895 78.90459543 251.77293301 82.1961424 263.0925293 85.21728516 C263.96562744 85.45366699 264.83872559 85.69004883 265.73828125 85.93359375 C266.47079102 86.12727539 267.20330078 86.32095703 267.95800781 86.52050781 C269.84765625 87.16796875 269.84765625 87.16796875 272.84765625 89.16796875 C273.29301166 91.94770383 273.5436825 94.49759882 273.66015625 97.29296875 C273.71107422 98.02773437 273.76199219 98.7625 273.81445312 99.51953125 C274.34464328 109.72793832 271.12337906 118.00838014 264.3359375 125.62109375 C262.63314535 127.39092496 260.95077722 128.89107387 258.84765625 130.16796875 C258.18765625 130.16796875 257.52765625 130.16796875 256.84765625 130.16796875 C256.76515625 131.13734375 256.68265625 132.10671875 256.59765625 133.10546875 C252.96797736 157.35172374 226.53886716 182.81421021 208.1652832 196.76879883 C189.82322752 209.898991 171.37876062 214.0589624 149.00732422 210.56884766 C141.12547879 209.03332023 133.34405201 207.11653534 125.56738281 205.12158203 C119.94617789 203.6804934 114.30333729 202.33238934 108.66015625 200.98046875 C107.64856445 200.73578857 106.63697266 200.4911084 105.59472656 200.23901367 C85.43388919 195.33645984 85.43388919 195.33645984 64.84765625 193.16796875 C63.99945313 193.11640625 63.15125 193.06484375 62.27734375 193.01171875 C52.21177046 192.6511609 41.14237063 194.27627124 31.84765625 198.16796875 C32.6280426 198.33892059 33.40842896 198.50987244 34.21246338 198.68600464 C41.57046959 200.29884394 48.92732568 201.91678855 56.28294754 203.5404644 C60.06448407 204.37501006 63.84643256 205.20758223 67.62939453 206.03564453 C71.28085982 206.83499936 74.93114769 207.63953757 78.58068085 208.44766617 C79.97250528 208.7549092 81.36474226 209.06028956 82.75739288 209.36376572 C84.709465 209.78948197 86.65994731 210.22246836 88.61035156 210.65576172 C89.72065735 210.90002899 90.83096313 211.14429626 91.97491455 211.39596558 C94.51007565 212.07724939 96.56929739 212.88672115 98.84765625 214.16796875 C99.24609375 216.87109375 99.24609375 216.87109375 98.84765625 220.16796875 C96.7164272 222.07194859 94.86922143 223.43765604 92.47265625 224.91796875 C75.92038797 235.98408036 65.07763723 251.81009407 55.84765625 269.16796875 C55.25339844 270.26367188 54.65914063 271.359375 54.046875 272.48828125 C46.52022465 286.87402982 41.64218986 302.2190719 37.15625 317.77905273 C36.88296875 318.71305908 36.6096875 319.64706543 36.328125 320.609375 C35.97077271 321.85763062 35.97077271 321.85763062 35.60620117 323.13110352 C34.84765625 325.16796875 34.84765625 325.16796875 32.84765625 327.16796875 C29.56412734 327.54873268 27.5895928 327.62634514 24.7421875 325.8671875 C24.05511719 325.20332031 23.36804688 324.53945313 22.66015625 323.85546875 C21.8196875 323.05367188 20.97921875 322.251875 20.11328125 321.42578125 C19.02212551 320.34247042 17.93399794 319.25610704 16.84765625 318.16796875 C16.10064453 317.42256836 15.35363281 316.67716797 14.58398438 315.90917969 C11.16732779 312.49652387 7.75148066 309.08355543 4.3605957 305.64526367 C3.56355225 304.83935791 2.76650879 304.03345215 1.9453125 303.203125 C1.22867432 302.47488525 0.51203613 301.74664551 -0.22631836 300.99633789 C-2.21989407 298.99975848 -2.21989407 298.99975848 -5.15234375 297.16796875 C-5.15234375 296.50796875 -5.15234375 295.84796875 -5.15234375 295.16796875 C-5.7040625 294.9359375 -6.25578125 294.70390625 -6.82421875 294.46484375 C-9.78884223 292.81340919 -11.9612669 290.77339378 -14.40234375 288.41796875 C-15.74039063 287.15726562 -15.74039063 287.15726562 -17.10546875 285.87109375 C-19.15234375 283.16796875 -19.15234375 283.16796875 -19.62109375 280.26953125 C-19.06626186 276.59839359 -17.90363144 273.68944635 -16.40234375 270.29296875 C-3.90832688 240.82720359 -6.33353672 207.84255307 -17.15234375 178.16796875 C-19.41883043 172.96062137 -21.90313822 167.86964234 -24.54492188 162.84277344 C-27.23167815 157.64206056 -28.81566029 154.0488361 -28.15234375 148.16796875 C-23.25399781 145.87928106 -18.11262085 145.04485666 -12.83984375 144.0390625 C-11.83453613 143.84449966 -10.82922852 143.64993683 -9.79345703 143.44947815 C-7.66569197 143.03936972 -5.53742203 142.6318733 -3.40869141 142.22680664 C-0.18992994 141.6126405 3.02613081 140.98557723 6.2421875 140.35742188 C31.48627767 135.48037139 31.48627767 135.48037139 36.84765625 136.16796875 C39.06210758 137.99586776 40.52050526 139.80892614 42.17578125 142.1484375 C45.01816258 145.58187476 48.54718748 146.5098899 52.84765625 147.16796875 C58.20642085 147.07557626 62.76716473 145.67274736 66.84765625 142.16796875 C70.02727597 137.95029672 71.54239045 133.46546787 71.23046875 128.18359375 C70.20707786 122.79512745 68.06272974 119.13506806 63.78515625 115.73046875 C59.23307395 113.30914838 55.98311034 112.82560514 50.84765625 113.16796875 C45.38479562 114.86333929 41.81731666 117.2779979 38.84765625 122.16796875 C37.8937526 124.49973322 37.00519055 126.81728365 36.23046875 129.21484375 C34.10686677 132.21428157 31.27108105 132.47775595 27.84765625 133.16796875 C27.02990723 133.34505371 26.2121582 133.52213867 25.36962891 133.70458984 C22.45031494 134.32234827 19.52563443 134.90519906 16.59765625 135.48046875 C15.51806641 135.69340576 14.43847656 135.90634277 13.32617188 136.12573242 C9.83419023 136.81094105 6.34095506 137.48951028 2.84765625 138.16796875 C1.64044922 138.40515625 0.43324219 138.64234375 -0.81054688 138.88671875 C-4.42271265 139.59415728 -8.03707513 140.28907979 -11.65234375 140.98046875 C-13.32345215 141.30881714 -13.32345215 141.30881714 -15.02832031 141.64379883 C-21.14794915 142.7966849 -26.9352366 143.87167674 -33.15234375 143.16796875 C-35.42578125 141.171875 -35.42578125 141.171875 -37.15234375 138.16796875 C-37.5174707 137.55808105 -37.88259766 136.94819336 -38.25878906 136.31982422 C-39.47191662 134.26872705 -40.62903727 132.1934727 -41.77734375 130.10546875 C-42.17179688 129.39841797 -42.56625 128.69136719 -42.97265625 127.96289062 C-44.04340268 126.03663226 -45.10987382 124.10967829 -46.15234375 122.16796875 C-46.51376465 121.5035376 -46.87518555 120.83910645 -47.24755859 120.15454102 C-48.70248404 116.96006494 -48.6448281 114.61535918 -48.15234375 111.16796875 C-42.83875317 106.83702848 -36.33974876 104.26507178 -30.15234375 101.41796875 C-28.55132812 100.65806641 -28.55132812 100.65806641 -26.91796875 99.8828125 C-25.8815625 99.40457031 -24.84515625 98.92632812 -23.77734375 98.43359375 C-22.37355469 97.78052246 -22.37355469 97.78052246 -20.94140625 97.11425781 C-17.81826541 96.05462074 -15.42949931 95.9081226 -12.15234375 96.16796875 C-9.84375 97.4453125 -9.84375 97.4453125 -7.71484375 99.10546875 C-3.77870015 101.87851149 -1.10586325 103.25642446 3.84765625 103.16796875 C8.61486981 102.29370467 12.53270034 101.00594939 15.78515625 97.29296875 C19.29614931 91.97328229 20.28131424 88.68050938 19.390625 82.3828125 C18.35999525 78.17873287 16.08417209 75.3220502 12.97265625 72.41796875 C7.57963874 69.24560551 2.90751215 68.60602915 -3.15234375 70.16796875 C-9.38817748 72.59888699 -11.47861686 75.61582247 -14.25 81.63671875 C-15.32983324 84.32211754 -15.32983324 84.32211754 -15.46484375 87.98046875 C-16.15234375 91.16796875 -16.15234375 91.16796875 -17.60473633 92.40600586 C-23.07000444 95.68241864 -28.68947574 98.37193821 -34.52734375 100.91796875 C-36.30605985 101.70426814 -38.08470907 102.49071887 -39.86328125 103.27734375 C-40.63978027 103.61733398 -41.4162793 103.95732422 -42.21630859 104.30761719 C-43.54244018 104.89693468 -44.85436992 105.51898184 -46.15234375 106.16796875 C-49.02734375 106.54296875 -49.02734375 106.54296875 -52.15234375 106.16796875 C-56.57445235 101.93084875 -58.03670916 96.52043215 -59.90234375 90.85546875 C-60.37607422 89.45844727 -60.37607422 89.45844727 -60.859375 88.03320312 C-61.63292435 85.74771642 -62.39689099 83.45948757 -63.15234375 81.16796875 C-63.03640869 81.76222656 -62.92047363 82.35648437 -62.80102539 82.96875 C-62.26954936 85.70129641 -61.74217223 88.43461905 -61.21484375 91.16796875 C-60.94124023 92.56982422 -60.94124023 92.56982422 -60.66210938 94 C-60.13914001 96.71944071 -59.64105265 99.44218343 -59.15234375 102.16796875 C-59.0013623 102.94914062 -58.85038086 103.7303125 -58.69482422 104.53515625 C-58.3359375 106.66796875 -58.3359375 106.66796875 -58.15234375 110.16796875 C-60.32660123 113.10010242 -63.12821455 114.23422428 -66.421875 115.65625 C-67.46931885 116.11153076 -68.5167627 116.56681152 -69.59594727 117.03588867 C-70.70768311 117.5126001 -71.81941895 117.98931152 -72.96484375 118.48046875 C-74.095271 118.97973877 -75.22569824 119.47900879 -76.39038086 119.9934082 C-85.84078405 124.14529302 -85.84078405 124.14529302 -90.63671875 125.66015625 C-96.75944994 127.70552278 -100.30251098 129.47728005 -103.4362793 135.32568359 C-104.76662941 138.12086449 -105.96018596 140.96238195 -107.13671875 143.82519531 C-108.98266282 148.08329131 -111.21292939 152.14150954 -113.40234375 156.23046875 C-113.81516602 157.01510498 -114.22798828 157.79974121 -114.65332031 158.6081543 C-115.43884074 160.09959023 -116.23215084 161.58695632 -117.03417969 163.06958008 C-117.76979579 164.45006488 -118.47727975 165.84597544 -119.15332031 167.2565918 C-120.12109375 169.18359375 -120.12109375 169.18359375 -122.15234375 172.16796875 C-124.66796875 172.9296875 -124.66796875 172.9296875 -127.40234375 172.85546875 C-132.80648931 173.04281246 -136.8443334 173.74891292 -141.15234375 177.16796875 C-144.24403126 180.85332194 -147.15234375 185.25671945 -147.15234375 190.16796875 C-146.23390777 194.93508881 -144.97843723 198.88635453 -141.21484375 202.10546875 C-135.40702752 206.01685519 -131.16763906 207.16864901 -124.15234375 206.16796875 C-119.44536108 204.44100412 -116.15386815 201.79468045 -113.58984375 197.48046875 C-111.54301673 192.668151 -111.81895324 188.15984946 -113.15234375 183.16796875 C-114.45132371 180.48882259 -116.03294809 178.28736441 -118.15234375 176.16796875 C-117.7490175 171.11725062 -116.54303768 167.36330975 -114.203125 162.89453125 C-113.60177734 161.73953125 -113.00042969 160.58453125 -112.38085938 159.39453125 C-111.90773315 158.50556152 -111.90773315 158.50556152 -111.42504883 157.59863281 C-110.47391065 155.81001903 -109.53948127 154.01345982 -108.60742188 152.21484375 C-98.37917366 132.73453221 -98.37917366 132.73453221 -89.96484375 129.16796875 C-88.55597744 128.52216191 -87.14712384 127.87632733 -85.73828125 127.23046875 C-84.99803711 126.90175781 -84.25779297 126.57304687 -83.49511719 126.234375 C-81.00837406 125.10243524 -78.56981074 123.89545936 -76.12890625 122.66796875 C-74.44933824 121.83439461 -72.76965289 121.00105685 -71.08984375 120.16796875 C-70.30520752 119.76964844 -69.52057129 119.37132812 -68.7121582 118.9609375 C-63.90710892 116.63370858 -60.49395896 115.71396693 -55.15234375 116.16796875 C-53.10241442 120.53846416 -51.06151142 124.91297195 -49.02880859 129.29150391 C-48.29475562 130.86307247 -47.54739809 132.42841749 -46.796875 133.9921875 C-43.42426683 141.16354567 -43.42426683 141.16354567 -44.15234375 145.16796875 C-46.50688104 147.52250604 -47.61619189 147.64333157 -50.8359375 148.23828125 C-51.76341797 148.41230469 -52.69089844 148.58632813 -53.64648438 148.765625 C-54.61779297 148.93964844 -55.58910156 149.11367188 -56.58984375 149.29296875 C-58.04100586 149.56560547 -58.04100586 149.56560547 -59.52148438 149.84375 C-66.69516565 151.16796875 -66.69516565 151.16796875 -70.15234375 151.16796875 C-70.21421875 151.93109375 -70.27609375 152.69421875 -70.33984375 153.48046875 C-72.1065928 161.49879136 -76.44216976 168.88503463 -80.15234375 176.16796875 C-78.50234375 176.49796875 -76.85234375 176.82796875 -75.15234375 177.16796875 C-74.76046875 175.93046875 -74.36859375 174.69296875 -73.96484375 173.41796875 C-68.7336385 157.7492635 -68.7336385 157.7492635 -65.15234375 154.16796875 C-62.62027604 153.52982914 -60.15493539 152.99831907 -57.58984375 152.54296875 C-56.87054688 152.41108154 -56.15125 152.27919434 -55.41015625 152.14331055 C-50.25514138 151.24524658 -45.39128417 150.88731123 -40.15234375 151.16796875 C-22.70165429 182.72772629 -13.44990289 222.64787409 -23.15234375 258.16796875 C-23.44238281 259.23660156 -23.73242188 260.30523437 -24.03125 261.40625 C-27.31560909 272.22127345 -32.21890776 282.90257025 -41.90625 289.33203125 C-48.10597635 291.63940766 -56.69515124 290.8527601 -62.96484375 289.10546875 C-71.99169958 283.61855638 -79.73536443 277.22104158 -87.32714844 269.91259766 C-89.3046641 268.02237201 -91.31066982 266.16491334 -93.31640625 264.3046875 C-94.70061311 262.9897475 -96.08344982 261.67336352 -97.46484375 260.35546875 C-98.12959717 259.74574219 -98.79435059 259.13601563 -99.47924805 258.5078125 C-100.39444214 257.61835937 -100.39444214 257.61835937 -101.328125 256.7109375 C-101.87380127 256.1955542 -102.41947754 255.6801709 -102.98168945 255.14916992 C-104.79704093 252.07689105 -104.46763045 249.67573598 -104.15234375 246.16796875 C-103.11767578 242.87670898 -103.11767578 242.87670898 -101.66015625 239.4765625 C-101.39836075 238.85713776 -101.13656525 238.23771301 -100.86683655 237.59951782 C-100.0159934 235.59597337 -99.14721733 233.60081504 -98.27734375 231.60546875 C-97.68577598 230.22423164 -97.0950433 228.84263659 -96.50512695 227.46069336 C-91.57092553 215.94822984 -86.44172152 204.52153194 -81.15234375 193.16796875 C-82.14234375 192.50796875 -83.13234375 191.84796875 -84.15234375 191.16796875 C-84.46349121 191.8957251 -84.77463867 192.62348145 -85.09521484 193.37329102 C-87.948204 200.04405081 -90.80542856 206.71296827 -93.66824341 213.3795166 C-95.00457446 216.49172621 -96.33898113 219.60471704 -97.66992188 222.71923828 C-99.03464032 225.91240093 -100.40524184 229.1029733 -101.77734375 232.29296875 C-102.19032715 233.26306885 -102.60331055 234.23316895 -103.02880859 235.23266602 C-103.41246582 236.12139404 -103.79612305 237.01012207 -104.19140625 237.92578125 C-104.52350098 238.70066895 -104.8555957 239.47555664 -105.19775391 240.27392578 C-106.15234375 242.16796875 -106.15234375 242.16796875 -108.15234375 244.16796875 C-111.56289031 244.55841753 -113.5286806 244.52216042 -116.5390625 242.8125 C-117.29832031 242.20792969 -118.05757813 241.60335937 -118.83984375 240.98046875 C-124.00637445 237.14997663 -129.19172345 234.5456123 -135.15234375 232.16796875 C-136.48652344 231.61109375 -136.48652344 231.61109375 -137.84765625 231.04296875 C-161.63411956 222.03194087 -190.27914094 226.8847444 -214.2565918 232.78466797 C-217.28605392 233.39719283 -220.07151789 233.36052037 -223.15234375 233.16796875 C-224.15234375 232.16796875 -224.15234375 232.16796875 -224.45703125 229.3828125 C-224.081176 225.41705778 -223.09830642 224.46846193 -220.27734375 221.73046875 C-214.28218018 215.45340093 -209.75488423 208.48968569 -205.15234375 201.16796875 C-204.59595215 200.2847998 -204.59595215 200.2847998 -204.02832031 199.38378906 C-197.45880814 188.87138909 -191.60537226 177.96076002 -185.71826172 167.05712891 C-184.15629777 164.17526402 -182.58065697 161.30133687 -181 158.4296875 C-176.61240154 150.45054695 -172.2488877 142.48848983 -168.27734375 134.29296875 C-157.75947223 112.67559226 -144.68124335 90.79828816 -129.58984375 72.00390625 C-128.00337097 70.03823589 -128.00337097 70.03823589 -126.27734375 67.23046875 C-123.63214661 63.41827287 -120.58432996 60.10568937 -117.453125 56.6875 C-115.43887426 54.48174155 -113.47507278 52.2447587 -111.52734375 49.98046875 C-83.07127674 17.49637399 -43.05112951 0.0548713 0 0 Z M-35.08984375 7.35546875 C-36.32951904 7.67584106 -36.32951904 7.67584106 -37.59423828 8.00268555 C-71.23602569 17.0462802 -98.60562629 38.22500411 -120.15234375 65.16796875 C-120.76464844 65.88984375 -121.37695312 66.61171875 -122.0078125 67.35546875 C-133.22752954 80.75214581 -142.4084579 96.06887765 -151.15234375 111.16796875 C-151.81218262 112.29477051 -151.81218262 112.29477051 -152.48535156 113.44433594 C-159.08652793 124.72379631 -165.3018447 136.16110852 -171.28710938 147.77856445 C-176.30850982 157.51692414 -181.51217401 167.14717712 -186.81054688 176.73730469 C-188.03958894 178.9637135 -189.26062139 181.19432737 -190.48046875 183.42578125 C-198.51062536 198.02313944 -206.88251843 212.28482118 -218.0703125 224.69921875 C-220.32191861 227.06023768 -220.32191861 227.06023768 -221.15234375 230.16796875 C-220.49492187 230.05839844 -219.8375 229.94882812 -219.16015625 229.8359375 C-217.09132152 229.49113171 -215.02228736 229.14752169 -212.953125 228.8046875 C-210.28211222 228.35723109 -207.61335117 227.90190263 -204.9453125 227.4375 C-175.90055299 222.42050316 -175.90055299 222.42050316 -164.15234375 223.16796875 C-163.16741943 223.22162598 -163.16741943 223.22162598 -162.16259766 223.27636719 C-143.92873892 224.36507438 -129.65920517 229.74930053 -114.15234375 239.16796875 C-112.82371863 239.84396987 -111.49126437 240.51259573 -110.15234375 241.16796875 C-105.27325734 231.71321704 -100.83777593 222.14129819 -96.69775391 212.34228516 C-95.7649537 210.13869932 -94.82030015 207.94043562 -93.875 205.7421875 C-93.27142137 204.32191782 -92.66853065 202.90135556 -92.06640625 201.48046875 C-91.64773788 200.51004639 -91.64773788 200.51004639 -91.22061157 199.52001953 C-89.64126265 195.74948682 -88.65933197 192.2238745 -88.15234375 188.16796875 C-91.12234375 186.18796875 -91.12234375 186.18796875 -94.15234375 184.16796875 C-93.60128466 180.21871195 -92.76299004 176.81876701 -91.15234375 173.16796875 C-88.51234375 173.49796875 -85.87234375 173.82796875 -83.15234375 174.16796875 C-77.17734909 163.5565895 -77.17734909 163.5565895 -73.79296875 152.07421875 C-72.15234375 149.16796875 -72.15234375 149.16796875 -69.76049805 148.25292969 C-66.54792705 147.51390583 -63.34514824 146.93717394 -60.08984375 146.41796875 C-57.86855834 146.03441918 -55.64841809 145.64415619 -53.4296875 145.24609375 C-52.44218506 145.0852832 -51.45468262 144.92447266 -50.43725586 144.75878906 C-49.30622437 144.46633301 -49.30622437 144.46633301 -48.15234375 144.16796875 C-47.82234375 143.50796875 -47.49234375 142.84796875 -47.15234375 142.16796875 C-47.84636425 140.04932768 -47.84636425 140.04932768 -48.98828125 137.703125 C-49.39304688 136.82076172 -49.7978125 135.93839844 -50.21484375 135.02929688 C-50.64796875 134.10568359 -51.08109375 133.18207031 -51.52734375 132.23046875 C-52.36961574 130.4093746 -53.2108086 128.58778085 -54.05078125 126.765625 C-54.42895996 125.95617432 -54.80713867 125.14672363 -55.19677734 124.31274414 C-56.15234375 122.16796875 -56.15234375 122.16796875 -57.15234375 119.16796875 C-60.88686206 119.77607917 -63.9206529 120.84720399 -67.3203125 122.49609375 C-68.29677734 122.96660156 -69.27324219 123.43710938 -70.27929688 123.921875 C-71.79426758 124.66244141 -71.79426758 124.66244141 -73.33984375 125.41796875 C-74.33048828 125.89621094 -75.32113281 126.37445313 -76.34179688 126.8671875 C-78.32168007 127.82532114 -80.2974103 128.79208604 -82.26879883 129.76757812 C-84.1495189 130.68094789 -86.04778657 131.55927298 -87.96362305 132.39648438 C-93.84553825 135.04559536 -96.83568623 137.33321326 -99.58984375 143.16796875 C-100.30937831 144.58489834 -101.02946023 146.00155007 -101.75 147.41796875 C-102.12527832 148.17722656 -102.50055664 148.93648437 -102.88720703 149.71875 C-104.27695849 152.40921441 -105.79229627 155.00043066 -107.3359375 157.60546875 C-108.40026074 159.45933632 -109.46406896 161.31349965 -110.52734375 163.16796875 C-111.05900146 164.039375 -111.59065918 164.91078125 -112.13842773 165.80859375 C-113.52401593 168.30720327 -114.58418638 170.36552382 -115.15234375 173.16796875 C-114.27553499 175.6596118 -113.17147543 177.33753669 -111.50634766 179.37890625 C-108.182208 183.77113405 -108.58519379 189.92183166 -109.15234375 195.16796875 C-110.80844539 200.44229246 -113.35573043 204.29000076 -118.15234375 207.16796875 C-124.18670141 209.99106005 -129.66959876 211.05302226 -136.15234375 209.16796875 C-142.48810462 206.24722792 -146.81661138 202.47549652 -149.46484375 195.91796875 C-150.80161435 188.62649273 -149.84016769 183.03927344 -145.6171875 176.89453125 C-142.69511019 173.45037613 -139.38092242 171.57749497 -135.15234375 170.16796875 C-134.32758545 170.18174561 -133.50282715 170.19552246 -132.65307617 170.2097168 C-129.57451439 170.24500497 -127.10526051 170.06222577 -124.15234375 169.16796875 C-121.34844735 166.1813585 -119.9957278 162.74475109 -118.46484375 158.98046875 C-117.55943577 156.96329339 -116.65057421 154.94766465 -115.73828125 152.93359375 C-115.30483398 151.94681641 -114.87138672 150.96003906 -114.42480469 149.94335938 C-112.21466894 145.12278701 -109.46244089 140.66544658 -106.7109375 136.140625 C-104.96884747 132.81799214 -104.06506986 129.79616855 -103.15234375 126.16796875 C-101.95931641 126.04808594 -101.95931641 126.04808594 -100.7421875 125.92578125 C-96.05566859 124.9364617 -92.04186781 123.05883249 -87.71484375 121.04296875 C-86.40326294 120.44053345 -86.40326294 120.44053345 -85.06518555 119.82592773 C-83.283575 119.00633167 -81.50337116 118.18367063 -79.72460938 117.35791016 C-77.33676502 116.25328284 -74.94187381 115.16628429 -72.54296875 114.0859375 C-71.18339777 113.46787884 -69.82401064 112.84941554 -68.46484375 112.23046875 C-67.26472656 111.68519531 -66.06460938 111.13992187 -64.828125 110.578125 C-62.04809032 109.44510101 -62.04809032 109.44510101 -61.15234375 107.16796875 C-61.46719927 105.16654513 -61.46719927 105.16654513 -62.11328125 102.8984375 C-62.33741699 102.01953857 -62.56155273 101.14063965 -62.79248047 100.23510742 C-63.03498535 99.28482666 -63.27749023 98.3345459 -63.52734375 97.35546875 C-65.42267848 89.51344044 -66.6843929 81.92065118 -67.02734375 73.85546875 C-67.0639209 73.01588623 -67.10049805 72.17630371 -67.13818359 71.3112793 C-67.29236444 65.83785941 -66.86015532 60.59633904 -66.15234375 55.16796875 C-66.00724365 55.79026367 -65.86214355 56.41255859 -65.71264648 57.05371094 C-63.05965831 68.31883406 -60.27919384 79.48233671 -56.46484375 90.41796875 C-56.17988037 91.24393555 -55.89491699 92.06990234 -55.60131836 92.92089844 C-54.21500281 96.77811997 -52.92011096 100.05736632 -50.15234375 103.16796875 C-46.08678358 101.87374849 -42.22856255 100.38044413 -38.3515625 98.6015625 C-37.29259766 98.11623047 -36.23363281 97.63089844 -35.14257812 97.13085938 C-34.05267578 96.62748047 -32.96277344 96.12410156 -31.83984375 95.60546875 C-30.73060547 95.09822266 -29.62136719 94.59097656 -28.47851562 94.06835938 C-23.49388363 92.11761126 -23.49388363 92.11761126 -19.15234375 89.16796875 C-18.90577482 87.67073092 -18.68041068 86.16998348 -18.46484375 84.66796875 C-17.17846453 78.16149995 -14.64286829 72.60215034 -9.07421875 68.71875 C-3.04923405 65.71679084 2.75929306 64.97886965 9.23828125 66.86328125 C15.55863274 69.35375088 18.74044115 72.5556 22.16015625 78.41796875 C23.84156925 85.14362075 23.60932234 91.34970052 20.10546875 97.4140625 C16.71476211 102.14209753 12.7857134 104.82643193 7.046875 105.94140625 C0.36801042 106.62945979 -4.42235475 106.0052674 -9.90234375 101.98046875 C-10.91554687 101.12388672 -10.91554687 101.12388672 -11.94921875 100.25 C-14.18965272 98.84569754 -14.18965272 98.84569754 -16.92749023 99.9465332 C-22.20009636 101.9435692 -27.3235167 104.23225997 -32.46484375 106.54296875 C-33.57408203 107.02507812 -34.68332031 107.5071875 -35.82617188 108.00390625 C-36.87869141 108.47828125 -37.93121094 108.95265625 -39.015625 109.44140625 C-39.97766846 109.86856934 -40.93971191 110.29573242 -41.9309082 110.73583984 C-44.2398523 111.9670551 -44.2398523 111.9670551 -45.12695312 114.01757812 C-45.1622353 117.0057067 -44.14695383 118.69788704 -42.6953125 121.30078125 C-42.15970703 122.27144531 -41.62410156 123.24210937 -41.07226562 124.2421875 C-40.50056641 125.24894531 -39.92886719 126.25570312 -39.33984375 127.29296875 C-38.77974609 128.30746094 -38.21964844 129.32195312 -37.64257812 130.3671875 C-34.84839399 135.5983523 -34.84839399 135.5983523 -31.15234375 140.16796875 C-21.49140082 140.77129733 -10.90319012 137.5801123 -1.4453125 135.78442383 C1.47170495 135.23064935 4.38998866 134.68401083 7.30859375 134.13867188 C9.18887963 133.78556894 11.06909061 133.43206687 12.94921875 133.078125 C13.80883209 132.91659439 14.66844543 132.75506378 15.55410767 132.58863831 C17.98755788 132.12600908 20.41754694 131.64779322 22.84765625 131.16796875 C23.68605042 131.01342728 24.52444458 130.8588858 25.38824463 130.69966125 C26.59767731 130.46136848 26.59767731 130.46136848 27.83154297 130.21826172 C28.55252167 130.08136932 29.27350037 129.94447693 30.0163269 129.80343628 C32.19261712 129.23153209 32.19261712 129.23153209 34.00390625 126.453125 C34.44734375 125.38964844 34.89078125 124.32617188 35.34765625 123.23046875 C36.04375 121.63912109 36.04375 121.63912109 36.75390625 120.015625 C37.49624688 118.08288813 38.19293941 116.13211927 38.84765625 114.16796875 C40.53515625 113.10546875 40.53515625 113.10546875 42.84765625 112.16796875 C43.69328125 111.79671875 44.53890625 111.42546875 45.41015625 111.04296875 C52.52988656 109.23067376 59.65756659 109.04567217 66.12890625 112.8515625 C71.42609538 116.90872781 73.71039028 122.03663405 74.76171875 128.54296875 C74.94939364 134.27558357 73.00481337 139.12069077 70.22265625 144.04296875 C65.70668579 148.0835739 60.88626188 149.90909819 54.91015625 150.66796875 C49.87913915 150.35666829 45.16355555 148.74275312 40.84765625 146.16796875 C39.40625 144.2734375 39.40625 144.2734375 38.16015625 142.29296875 C36.86360744 140.46822311 36.86360744 140.46822311 34.84765625 139.16796875 C31.94072359 139.05913362 31.94072359 139.05913362 28.60546875 139.68359375 C27.96065048 139.78288177 27.31583221 139.8821698 26.651474 139.98446655 C16.51795173 141.61047123 6.46350731 143.74006092 -3.58984375 145.79296875 C-5.68936165 146.21790014 -7.78897047 146.64238254 -9.88867188 147.06640625 C-14.9776241 148.09509436 -20.0653124 149.12982513 -25.15234375 150.16796875 C-24.59217427 153.45526978 -23.83217648 156.15259419 -22.296875 159.109375 C-21.92449707 159.84776611 -21.55211914 160.58615723 -21.16845703 161.34692383 C-20.57266846 162.52677856 -20.57266846 162.52677856 -19.96484375 163.73046875 C-4.04722994 196.29728587 -0.22797441 233.75455347 -11.49560547 268.31640625 C-12.61711829 271.47832196 -14.03388447 274.46907419 -15.6484375 277.40625 C-16.32295092 279.17985684 -16.32295092 279.17985684 -15.6328125 281.00390625 C-13.45065416 284.1936575 -10.78345461 286.78386483 -8.02734375 289.48046875 C-7.48335937 290.02380859 -6.939375 290.56714844 -6.37890625 291.12695312 C-3.42369601 294.05109223 -0.39779139 296.84723528 2.75390625 299.55859375 C7.91619712 304.02665408 12.62222767 308.9271689 17.375 313.82226562 C18.05433594 314.51255859 18.73367188 315.20285156 19.43359375 315.9140625 C20.04251465 316.53982178 20.65143555 317.16558105 21.27880859 317.81030273 C22.75392198 319.38609519 22.75392198 319.38609519 24.84765625 319.16796875 C25.17765625 320.15796875 25.50765625 321.14796875 25.84765625 322.16796875 C28.35213141 323.38666804 28.35213141 323.38666804 30.84765625 324.16796875 C33.23551653 318.03550941 35.28262358 311.81854665 37.31103516 305.55883789 C41.15058086 293.73347188 45.03759762 282.20040191 50.84765625 271.16796875 C51.46769861 269.9265556 52.08612872 268.68433615 52.703125 267.44140625 C61.84792155 249.32030638 76.69702758 226.81234975 95.84765625 218.16796875 C95.84765625 217.50796875 95.84765625 216.84796875 95.84765625 216.16796875 C75.09588527 211.26553695 54.30407563 206.56397896 33.48193359 201.97021484 C29.26956056 201.04035741 25.05837808 200.10527067 20.84765625 199.16796875 C51.7434445 182.87746222 87.99424462 191.51111758 119.98291016 200.13330078 C159.04872309 210.82400749 159.04872309 210.82400749 196.84692383 199.84985352 C204.84605976 195.02538353 211.66131421 189.29794974 218.26660156 182.72558594 C219.85824898 181.15753305 221.48403888 179.63375061 223.12109375 178.11328125 C231.70945038 170.01110604 238.3690914 161.00749725 244.84765625 151.16796875 C245.48832031 150.22824219 246.12898438 149.28851563 246.7890625 148.3203125 C249.72876977 143.78918476 251.31029888 139.71934251 252.66015625 134.48046875 C254.33880462 128.44583409 256.61544348 126.06687406 261.73046875 122.62890625 C266.74830802 119.166412 268.77474271 113.78119699 270.38671875 108.11328125 C271.27219704 102.45522503 270.52383944 96.82183787 269.84765625 91.16796875 C258.59489091 87.53863276 247.25514547 84.22688739 235.89672852 80.94604492 C234.49884781 80.54219947 233.10098024 80.13830858 231.703125 79.734375 C230.9896138 79.52820053 230.2761026 79.32202606 229.54096985 79.10960388 C224.21827227 77.56951191 218.90111615 76.01113753 213.5859375 74.4453125 C211.13547881 73.7241865 208.68498165 73.00319139 206.23446655 72.28225708 C204.55890409 71.78909732 202.88346875 71.29550545 201.2081604 70.80148315 C190.03758813 67.51024578 178.84331133 64.31781337 167.62109375 61.20703125 C165.1876275 60.52958627 162.75419642 59.85201498 160.32080078 59.17431641 C155.56748458 57.85088044 150.81014904 56.54334208 146.05029297 55.24365234 C143.86278901 54.6356907 141.67544389 54.02715715 139.48828125 53.41796875 C138.48493744 53.14860504 137.48159363 52.87924133 136.44784546 52.60171509 C130.7685806 51.0032744 125.83618414 49.53015078 122.66015625 44.16015625 C122.39203125 43.46148437 122.12390625 42.7628125 121.84765625 42.04296875 C121.5228125 41.25921875 121.19796875 40.47546875 120.86328125 39.66796875 C120.36054687 38.43046875 120.36054687 38.43046875 119.84765625 37.16796875 C115.50903383 26.85588068 109.79261832 20.78401636 99.39453125 16.41796875 C87.61031735 12.26494183 75.41155378 9.31981735 63.16015625 6.91796875 C62.02537842 6.69161743 62.02537842 6.69161743 60.86767578 6.46069336 C45.81274144 3.67767852 30.68651727 2.83467764 15.40380859 2.90722656 C12.71689458 2.91799183 10.03064464 2.90722601 7.34375 2.89453125 C-6.98526199 2.8818402 -21.16891951 3.69596911 -35.08984375 7.35546875 Z M-88.15234375 176.16796875 C-90.74011583 179.22377849 -90.74011583 179.22377849 -91.15234375 183.16796875 C-89.17234375 184.15796875 -89.17234375 184.15796875 -87.15234375 185.16796875 C-86.16234375 182.52796875 -85.17234375 179.88796875 -84.15234375 177.16796875 C-85.47234375 176.83796875 -86.79234375 176.50796875 -88.15234375 176.16796875 Z M-71.15234375 184.16796875 C-71.44109375 184.93109375 -71.72984375 185.69421875 -72.02734375 186.48046875 C-73.15234375 189.16796875 -73.15234375 189.16796875 -75.15234375 192.16796875 C-73.50234375 192.16796875 -71.85234375 192.16796875 -70.15234375 192.16796875 C-69.16234375 190.18796875 -68.17234375 188.20796875 -67.15234375 186.16796875 C-68.47234375 185.50796875 -69.79234375 184.84796875 -71.15234375 184.16796875 Z " fill="#B80000" transform="translate(245.15234375,124.83203125)"/>
<path d="M0 0 C3 0.125 3 0.125 4 1.125 C4.16418334 3.896204 4.26123238 6.64370823 4.31640625 9.41796875 C4.33727798 10.31444626 4.35814972 11.21092377 4.37965393 12.13456726 C4.44741517 15.19377681 4.50579516 18.25306631 4.5625 21.3125 C4.58334656 22.37478821 4.60419312 23.43707642 4.62567139 24.53155518 C5.03809049 46.15512225 5.10942815 67.77922938 5.12293625 89.40613174 C5.12498371 91.97952849 5.12873975 94.55291805 5.13284302 97.12631226 C5.1474011 107.79335975 5.10809867 118.45848855 5 129.125 C4.98809631 130.84620056 4.98809631 130.84620056 4.97595215 132.60217285 C4.9471044 135.46812401 4.88507478 138.33041502 4.8046875 141.1953125 C4.79684738 142.36306717 4.79684738 142.36306717 4.78884888 143.55441284 C4.6364513 147.28451211 4.29519426 148.82667733 1.62719727 151.52294922 C-7.66759836 157.19086567 -17.51480961 160.45927363 -28 163.125 C-28.70640625 163.32222656 -29.4128125 163.51945313 -30.140625 163.72265625 C-33.44584658 164.43786176 -36.62727369 164.23558119 -40 164.125 C-41.73089181 162.39410819 -41.15616905 160.05238893 -41.18081665 157.69221497 C-41.19519775 156.51311554 -41.20957886 155.33401611 -41.22439575 154.1191864 C-41.23493988 152.81375381 -41.24548401 151.50832123 -41.25634766 150.16333008 C-41.27078952 148.78376952 -41.28554706 147.40421224 -41.30059814 146.0246582 C-41.43100165 133.4173814 -41.49675695 120.8092088 -41.54844093 108.20139027 C-41.58734997 98.87907702 -41.65568679 89.5579722 -41.76298869 80.23618966 C-41.83585719 73.6849817 -41.8742782 67.13410406 -41.88746679 60.58250731 C-41.89633269 56.66817272 -41.92058332 52.75533059 -41.98213577 48.8414402 C-42.03942935 45.15631859 -42.05404524 41.47345661 -42.03626251 37.78795624 C-42.03755808 35.79454048 -42.08352456 33.80130979 -42.13088989 31.80845642 C-42.03162741 23.23650411 -42.03162741 23.23650411 -39.05243301 20.02663708 C-36.75735305 18.46907721 -34.52298214 17.26789477 -32 16.125 C-30.80390004 15.45138303 -29.61145163 14.77121509 -28.42382812 14.08276367 C-27.30427734 13.49213135 -26.18472656 12.90149902 -25.03125 12.29296875 C-24.42486694 11.97088943 -23.81848389 11.64881012 -23.19372559 11.31697083 C-21.29815475 10.31098618 -19.39932872 9.31136851 -17.5 8.3125 C-15.57269221 7.29472176 -13.64612402 6.27558405 -11.72058105 5.25447083 C-9.99553214 4.34028369 -8.26833071 3.43016173 -6.54101562 2.52026367 C-2.11139864 0.08797494 -2.11139864 0.08797494 0 0 Z " fill="#BA0000" transform="translate(574,249.875)"/>
<path d="M0 0 C17.45894833 31.46447831 24.57628455 70.28680559 15.12109375 105.25 C11.82291497 116.06913039 7.35790741 125.29771496 -2 132 C-6.86951564 134.43475782 -13.529689 133.43851381 -18.5625 131.9375 C-27.43882574 126.93448004 -34.93722233 120.68706543 -42.26855469 113.65087891 C-43.50776006 112.46933538 -44.75699867 111.29827949 -46.01269531 110.13427734 C-48.13050241 108.17011125 -50.22311562 106.18183422 -52.3125 104.1875 C-52.98949951 103.56552734 -53.66649902 102.94355469 -54.36401367 102.30273438 C-54.98252197 101.70138672 -55.60103027 101.10003906 -56.23828125 100.48046875 C-56.79555908 99.95348389 -57.35283691 99.42649902 -57.92700195 98.88354492 C-59.58734793 95.96896717 -58.84938078 94.19311773 -58 91 C-57.01264952 88.38308435 -55.98694835 85.84308687 -54.8671875 83.28515625 C-54.55226349 82.55235947 -54.23733948 81.81956268 -53.91287231 81.06455994 C-53.24515914 79.51426989 -52.57426422 77.96534682 -51.90039062 76.41772461 C-50.89290832 74.10363371 -49.89476567 71.78570865 -48.8984375 69.46679688 C-44.77121347 59.89502725 -40.46478269 50.41879711 -36 41 C-32.7 41 -29.4 41 -26 41 C-24.68 37.7 -23.36 34.4 -22 31 C-24.64 29.35 -27.28 27.7 -30 26 C-29.3818353 20.82693753 -27.79056993 16.49106887 -25.75 11.75 C-25.46253906 11.03070313 -25.17507812 10.31140625 -24.87890625 9.5703125 C-22.65969321 4.39537905 -22.65969321 4.39537905 -19.640625 2.5859375 C-16.7626414 1.94733167 -13.91152289 1.34292332 -11 0.875 C-9.4840625 0.62363281 -9.4840625 0.62363281 -7.9375 0.3671875 C-5.25084229 0.03135529 -2.70316597 -0.06956677 0 0 Z " fill="#000000" transform="translate(203,279)"/>
<path d="M0 0 C3 0.125 3 0.125 4 1.125 C4.10040283 2.75259654 4.13076048 4.38455579 4.13371277 6.01524353 C4.13797775 7.07391129 4.14224274 8.13257904 4.14663696 9.22332764 C4.14618378 10.39478333 4.14573059 11.56623901 4.14526367 12.77319336 C4.14862228 13.99907669 4.1519809 15.22496002 4.15544128 16.48799133 C4.16333717 19.85987854 4.16662023 23.2317042 4.16725707 26.60359645 C4.16820455 29.41436711 4.17188099 32.2251318 4.17542917 35.03590018 C4.18358134 41.66513116 4.18601271 48.29434856 4.18530273 54.92358398 C4.18470176 61.77128677 4.19525575 68.61891083 4.2110464 75.46659368 C4.22410425 81.33751324 4.22948737 87.20840702 4.22884732 93.07934099 C4.22859181 96.58939506 4.23147198 100.09937921 4.24202538 103.60941887 C4.25346751 107.52211484 4.24897031 111.43470209 4.24291992 115.34741211 C4.24853943 116.51684357 4.25415894 117.68627502 4.25994873 118.8911438 C4.25575424 119.95263138 4.25155975 121.01411896 4.24723816 122.10777283 C4.24778293 123.03379775 4.24832769 123.95982267 4.24888897 124.91390896 C4 127.125 4 127.125 2 129.125 C-0.09692383 129.61157227 -0.09692383 129.61157227 -2.70703125 129.94140625 C-3.67688965 130.06555908 -4.64674805 130.18971191 -5.64599609 130.31762695 C-6.69094238 130.43968506 -7.73588867 130.56174316 -8.8125 130.6875 C-9.87807129 130.81535889 -10.94364258 130.94321777 -12.04150391 131.07495117 C-19.30810124 131.90810878 -26.57157637 132.54155831 -33.875 132.9375 C-34.76550049 132.99043213 -35.65600098 133.04336426 -36.57348633 133.09790039 C-38.71360755 133.1920295 -40.85827263 133.16953097 -43 133.125 C-46.11281377 130.01218623 -45.3459786 126.21343275 -45.38574219 122.02880859 C-45.40209717 121.08551697 -45.41845215 120.14222534 -45.43530273 119.17034912 C-45.48506128 116.03807123 -45.51805917 112.90597524 -45.546875 109.7734375 C-45.55752235 108.70406574 -45.56816971 107.63469398 -45.57913971 106.53291702 C-45.63263186 100.86979284 -45.67136713 95.20675716 -45.70019531 89.54345703 C-45.73345221 83.69835387 -45.82295949 77.85551503 -45.9249382 72.01126671 C-45.99233157 67.51414473 -46.01535497 63.01755771 -46.02664948 58.51997757 C-46.04006777 56.36611301 -46.07049653 54.21228327 -46.11843109 52.05891037 C-46.47175557 35.22194893 -46.47175557 35.22194893 -42.87854004 30.10235596 C-40.33082742 28.02767853 -37.9334017 26.584645 -35 25.125 C-33.31845819 23.97987729 -31.64959515 22.81568246 -30 21.625 C-29.17371094 21.05523437 -28.34742188 20.48546875 -27.49609375 19.8984375 C-23.17821844 16.83065129 -19.09764665 13.47817931 -15 10.125 C-13.49566406 8.90103516 -13.49566406 8.90103516 -11.9609375 7.65234375 C-2.71304802 0.11304367 -2.71304802 0.11304367 0 0 Z " fill="#000000" transform="translate(521,287.875)"/>
<path d="M0 0 C1.70296522 1.70296522 1.1320232 3.84321515 1.14663696 6.11564636 C1.14618378 6.84761734 1.14573059 7.57958832 1.14526367 8.33374023 C1.14862228 9.10120575 1.1519809 9.86867126 1.15544128 10.65939331 C1.16497942 13.20914303 1.16689582 15.75882728 1.16796875 18.30859375 C1.17117934 20.07357308 1.17454326 21.83855213 1.17805481 23.60353088 C1.18405325 27.30836606 1.18589398 31.01317788 1.18530273 34.71801758 C1.18520107 39.47426875 1.19885445 44.23037077 1.21607494 48.98658657 C1.22717271 52.63333326 1.22922263 56.28004364 1.22869301 59.9268055 C1.22987645 61.68075131 1.23431844 63.43469796 1.24202538 65.18862724 C1.25178063 67.63814731 1.24896508 70.08734034 1.24291992 72.53686523 C1.24853943 73.26681198 1.25415894 73.99675873 1.25994873 74.74882507 C1.22831567 79.77168433 1.22831567 79.77168433 -1 82 C-3.01808167 82.24723816 -3.01808167 82.24723816 -5.52563477 82.24291992 C-6.46323135 82.24599655 -7.40082794 82.24907318 -8.36683655 82.25224304 C-9.38144455 82.24505753 -10.39605255 82.23787201 -11.44140625 82.23046875 C-12.47941879 82.23001053 -13.51743134 82.22955231 -14.5868988 82.2290802 C-16.78344871 82.22605583 -18.97999643 82.21816405 -21.17651367 82.20581055 C-24.55199722 82.1875568 -27.92720664 82.18530079 -31.30273438 82.18554688 C-33.43229406 82.18063177 -35.56185187 82.17480349 -37.69140625 82.16796875 C-39.2163546 82.16629951 -39.2163546 82.16629951 -40.77210999 82.16459656 C-42.17377663 82.15502678 -42.17377663 82.15502678 -43.60375977 82.14526367 C-44.84380516 82.13954597 -44.84380516 82.13954597 -46.10890198 82.13371277 C-48 82 -48 82 -49 81 C-49.11455672 79.2672658 -49.15962254 77.52988699 -49.17700195 75.79345703 C-49.19625481 74.12635178 -49.19625481 74.12635178 -49.21589661 72.42556763 C-49.22328354 71.21520844 -49.23067047 70.00484924 -49.23828125 68.7578125 C-49.25038887 66.90613968 -49.25038887 66.90613968 -49.26274109 65.01705933 C-49.27660131 62.39924534 -49.28731474 59.78141313 -49.29516602 57.16357422 C-49.30403614 54.47454233 -49.32492808 51.78602552 -49.35668945 49.09716797 C-49.39915089 45.23388929 -49.41550628 41.37129491 -49.42578125 37.5078125 C-49.44328934 36.30150177 -49.46079742 35.09519104 -49.47883606 33.85232544 C-49.47591049 32.73461761 -49.47298492 31.61690979 -49.4699707 30.46533203 C-49.47583694 29.48017609 -49.48170319 28.49502014 -49.48774719 27.48001099 C-49 25 -49 25 -47.18522644 23.25485229 C-44.09752564 21.48175988 -40.85070335 20.15822405 -37.5625 18.8125 C-27.92379097 14.72355056 -19.19196255 9.74740881 -11.125 3 C-7.2157564 -0.17355569 -4.96388742 -0.82731457 0 0 Z " fill="#BA0000" transform="translate(466,340)"/>
<path d="M0 0 C1.70492881 1.70492881 1.1280442 3.84534261 1.13894653 6.11901855 C1.1369223 6.83255493 1.13489807 7.54609131 1.1328125 8.28125 C1.13376923 9.00993286 1.13472595 9.73861572 1.13571167 10.48937988 C1.13639335 12.0327971 1.13453988 13.57621717 1.13037109 15.11962891 C1.12502262 17.489974 1.13031642 19.86012959 1.13671875 22.23046875 C1.13605797 23.72656292 1.1347768 25.22265697 1.1328125 26.71875 C1.13483673 27.43228638 1.13686096 28.14582275 1.13894653 28.88098145 C1.11495191 33.88504809 1.11495191 33.88504809 0 35 C-1.5293463 35.09839214 -3.06319566 35.12798539 -4.59570312 35.12939453 C-6.06227356 35.13412277 -6.06227356 35.13412277 -7.55847168 35.13894653 C-8.62198853 35.1369223 -9.68550537 35.13489807 -10.78125 35.1328125 C-12.40697937 35.13424759 -12.40697937 35.13424759 -14.06555176 35.13571167 C-16.3622239 35.13639365 -18.65889795 35.13453811 -20.95556641 35.13037109 C-24.48474428 35.12502312 -28.01379487 35.1303155 -31.54296875 35.13671875 C-33.76822945 35.13605797 -35.99349007 35.13477682 -38.21875 35.1328125 C-39.28226685 35.13483673 -40.34578369 35.13686096 -41.44152832 35.13894653 C-42.41924194 35.13579437 -43.39695557 35.13264221 -44.40429688 35.12939453 C-45.26953979 35.12859894 -46.13478271 35.12780334 -47.02624512 35.12698364 C-49 35 -49 35 -50 34 C-50.08685603 32.43827255 -50.10702219 30.87270656 -50.09765625 29.30859375 C-50.09443359 28.36435547 -50.09121094 27.42011719 -50.08789062 26.44726562 C-50.07951172 25.45404297 -50.07113281 24.46082031 -50.0625 23.4375 C-50.05798828 22.44041016 -50.05347656 21.44332031 -50.04882812 20.41601562 C-50.03700007 17.94395151 -50.02051849 15.47200482 -50 13 C-42.48943093 9.93622566 -34.71036509 7.97206119 -26.875 5.9375 C-24.85017853 5.40917006 -22.82570097 4.87959475 -20.80178833 4.34779358 C-18.97125059 3.86716661 -17.13970671 3.39037643 -15.30810547 2.91381836 C-13.11211612 2.30720669 -10.93321945 1.63473395 -8.77783203 0.89672852 C-5.69465454 -0.09857039 -3.22047602 -0.22468437 0 0 Z " fill="#000000" transform="translate(406,387)"/>
<path d="M0 0 C3 0.125 3 0.125 4 1.125 C4.10040283 2.75259654 4.13076048 4.38455579 4.13371277 6.01524353 C4.13797775 7.07391129 4.14224274 8.13257904 4.14663696 9.22332764 C4.14618378 10.39478333 4.14573059 11.56623901 4.14526367 12.77319336 C4.14862228 13.99907669 4.1519809 15.22496002 4.15544128 16.48799133 C4.16333717 19.85987854 4.16662023 23.2317042 4.16725707 26.60359645 C4.16820455 29.41436711 4.17188099 32.2251318 4.17542917 35.03590018 C4.18358134 41.66513116 4.18601271 48.29434856 4.18530273 54.92358398 C4.18470176 61.77128677 4.19525575 68.61891083 4.2110464 75.46659368 C4.22410425 81.33751324 4.22948737 87.20840702 4.22884732 93.07934099 C4.22859181 96.58939506 4.23147198 100.09937921 4.24202538 103.60941887 C4.25346751 107.52211484 4.24897031 111.43470209 4.24291992 115.34741211 C4.24853943 116.51684357 4.25415894 117.68627502 4.25994873 118.8911438 C4.25575424 119.95263138 4.25155975 121.01411896 4.24723816 122.10777283 C4.24778293 123.03379775 4.24832769 123.95982267 4.24888897 124.91390896 C4 127.125 4 127.125 2 129.125 C-0.09692383 129.61157227 -0.09692383 129.61157227 -2.70703125 129.94140625 C-3.67688965 130.06555908 -4.64674805 130.18971191 -5.64599609 130.31762695 C-6.69094238 130.43968506 -7.73588867 130.56174316 -8.8125 130.6875 C-9.87807129 130.81535889 -10.94364258 130.94321777 -12.04150391 131.07495117 C-19.30810124 131.90810878 -26.57157637 132.54155831 -33.875 132.9375 C-34.76550049 132.99043213 -35.65600098 133.04336426 -36.57348633 133.09790039 C-38.71360755 133.1920295 -40.85827263 133.16953097 -43 133.125 C-46.11281377 130.01218623 -45.3459786 126.21343275 -45.38574219 122.02880859 C-45.40209717 121.08551697 -45.41845215 120.14222534 -45.43530273 119.17034912 C-45.48506128 116.03807123 -45.51805917 112.90597524 -45.546875 109.7734375 C-45.55752235 108.70406574 -45.56816971 107.63469398 -45.57913971 106.53291702 C-45.63263186 100.86979284 -45.67136713 95.20675716 -45.70019531 89.54345703 C-45.73345221 83.69835387 -45.82295949 77.85551503 -45.9249382 72.01126671 C-45.99233157 67.51414473 -46.01535497 63.01755771 -46.02664948 58.51997757 C-46.04006777 56.36611301 -46.07049653 54.21228327 -46.11843109 52.05891037 C-46.47175557 35.22194893 -46.47175557 35.22194893 -42.87854004 30.10235596 C-40.33082742 28.02767853 -37.9334017 26.584645 -35 25.125 C-33.31845819 23.97987729 -31.64959515 22.81568246 -30 21.625 C-29.17371094 21.05523437 -28.34742188 20.48546875 -27.49609375 19.8984375 C-23.17821844 16.83065129 -19.09764665 13.47817931 -15 10.125 C-13.49566406 8.90103516 -13.49566406 8.90103516 -11.9609375 7.65234375 C-2.71304802 0.11304367 -2.71304802 0.11304367 0 0 Z M-4.25 5.9375 C-13.8884354 14.56867548 -24.36180282 22.21510622 -34.8203125 29.8125 C-35.86960937 30.575625 -36.91890625 31.33875 -38 32.125 C-39.07432281 32.66154961 -39.07432281 32.66154961 -40.17034912 33.2089386 C-43.13966869 36.31849282 -42.52148337 40.02665964 -42.45410156 44.09448242 C-42.45468567 45.01175613 -42.45526978 45.92902985 -42.45587158 46.87409973 C-42.45308196 49.90993931 -42.4219483 52.94480043 -42.390625 55.98046875 C-42.38316574 58.08367883 -42.37747132 60.18689585 -42.37347412 62.29011536 C-42.35819305 67.82887929 -42.31888968 73.36722442 -42.2746582 78.90582275 C-42.23375895 84.55629816 -42.21547452 90.20684115 -42.1953125 95.85742188 C-42.15239804 106.94679871 -42.08411662 118.03586454 -42 129.125 C-38.09572837 130.23025056 -34.91194789 130.01271261 -30.85546875 129.63671875 C-29.82345085 129.54182915 -29.82345085 129.54182915 -28.77058411 129.44502258 C-27.31703651 129.30954968 -25.86380441 129.17065379 -24.41088867 129.02856445 C-22.20637956 128.81433468 -20.0009059 128.61440878 -17.79492188 128.41601562 C-16.37752241 128.28211265 -14.96020163 128.14737357 -13.54296875 128.01171875 C-12.26446045 127.89014404 -10.98595215 127.76856934 -9.66870117 127.64331055 C-5.39234158 127.12491083 -5.39234158 127.12491083 1 125.125 C1 84.865 1 44.605 1 3.125 C-1.71866019 3.125 -2.26931648 4.098909 -4.25 5.9375 Z " fill="#B90000" transform="translate(521,287.875)"/>
<path d="M0 0 C3.25900019 1.45614902 5.71264424 3.25517308 8 6 C9.87151006 11.61453019 9.91188821 17.07100571 7.375 22.4375 C3.73335668 26.36664148 0.32997533 28.12217703 -5 28.4375 C-9.26543541 28.25027669 -11.74624072 26.81006484 -15 24 C-17.83290471 20.71979455 -19.25138878 18.23424153 -19.4375 13.9375 C-18.82206666 8.39859996 -17.12846341 6.2385574 -13.4375 2.1875 C-9.3899017 -1.02022165 -4.9203083 -0.76519845 0 0 Z " fill="#000000" transform="translate(304,241)"/>
<path d="M0 0 C3.89472241 3.71768958 5.78035523 6.55884659 6.1328125 11.98046875 C5.81437079 16.82265595 3.95409388 20.09361081 0.5 23.375 C-3.71880107 26.11722069 -7.04095775 26.33620625 -12 26 C-16.63696928 24.27250164 -19.66107692 22.40797042 -22 18 C-22.71278427 13.2569869 -23.1178507 8.39604883 -21.046875 3.95703125 C-15.9074439 -2.62989786 -7.2379868 -4.19041341 0 0 Z " fill="#000000" transform="translate(256,199)"/>
<path d="M0 0 C3.72320104 1.66265085 5.55225944 4.14345285 7.4375 7.75 C8.28587128 12.65170075 8.50510623 17.47394758 5.8828125 21.875 C3.29374266 25.0615475 1.49847311 26.84297437 -2.609375 27.2734375 C-12.13348083 27.58143097 -12.13348083 27.58143097 -15.625 24.75 C-19.49071702 20.2739066 -20.45469081 17.08585797 -20.3203125 11.25 C-19.70905044 6.95625675 -17.32934154 4.2239312 -14.2265625 1.3671875 C-9.90694351 -1.28521012 -4.87487692 -0.6908248 0 0 Z " fill="#000000" transform="translate(122,301)"/>
<path d="M0 0 C1.70492881 1.70492881 1.1280442 3.84534261 1.13894653 6.11901855 C1.1369223 6.83255493 1.13489807 7.54609131 1.1328125 8.28125 C1.13376923 9.00993286 1.13472595 9.73861572 1.13571167 10.48937988 C1.13639335 12.0327971 1.13453988 13.57621717 1.13037109 15.11962891 C1.12502262 17.489974 1.13031642 19.86012959 1.13671875 22.23046875 C1.13605797 23.72656292 1.1347768 25.22265697 1.1328125 26.71875 C1.13483673 27.43228638 1.13686096 28.14582275 1.13894653 28.88098145 C1.11495191 33.88504809 1.11495191 33.88504809 0 35 C-1.5293463 35.09839214 -3.06319566 35.12798539 -4.59570312 35.12939453 C-6.06227356 35.13412277 -6.06227356 35.13412277 -7.55847168 35.13894653 C-8.62198853 35.1369223 -9.68550537 35.13489807 -10.78125 35.1328125 C-12.40697937 35.13424759 -12.40697937 35.13424759 -14.06555176 35.13571167 C-16.3622239 35.13639365 -18.65889795 35.13453811 -20.95556641 35.13037109 C-24.48474428 35.12502312 -28.01379487 35.1303155 -31.54296875 35.13671875 C-33.76822945 35.13605797 -35.99349007 35.13477682 -38.21875 35.1328125 C-39.28226685 35.13483673 -40.34578369 35.13686096 -41.44152832 35.13894653 C-42.41924194 35.13579437 -43.39695557 35.13264221 -44.40429688 35.12939453 C-45.26953979 35.12859894 -46.13478271 35.12780334 -47.02624512 35.12698364 C-49 35 -49 35 -50 34 C-50.08685603 32.43827255 -50.10702219 30.87270656 -50.09765625 29.30859375 C-50.09443359 28.36435547 -50.09121094 27.42011719 -50.08789062 26.44726562 C-50.07951172 25.45404297 -50.07113281 24.46082031 -50.0625 23.4375 C-50.05798828 22.44041016 -50.05347656 21.44332031 -50.04882812 20.41601562 C-50.03700007 17.94395151 -50.02051849 15.47200482 -50 13 C-42.48943093 9.93622566 -34.71036509 7.97206119 -26.875 5.9375 C-24.85017853 5.40917006 -22.82570097 4.87959475 -20.80178833 4.34779358 C-18.97125059 3.86716661 -17.13970671 3.39037643 -15.30810547 2.91381836 C-13.11211612 2.30720669 -10.93321945 1.63473395 -8.77783203 0.89672852 C-5.69465454 -0.09857039 -3.22047602 -0.22468437 0 0 Z M-13.25 5.625 C-24.37408479 9.24008152 -35.66295896 12.13782849 -47 15 C-47 20.61 -47 26.22 -47 32 C-32.15 32 -17.3 32 -2 32 C-2 22.43 -2 12.86 -2 3 C-6.02961967 3 -9.46668486 4.36890699 -13.25 5.625 Z " fill="#B90000" transform="translate(406,387)"/>
<path d="M0 0 C3.25900019 1.45614902 5.71264424 3.25517308 8 6 C9.87151006 11.61453019 9.91188821 17.07100571 7.375 22.4375 C3.73335668 26.36664148 0.32997533 28.12217703 -5 28.4375 C-9.26543541 28.25027669 -11.74624072 26.81006484 -15 24 C-17.83290471 20.71979455 -19.25138878 18.23424153 -19.4375 13.9375 C-18.82206666 8.39859996 -17.12846341 6.2385574 -13.4375 2.1875 C-9.3899017 -1.02022165 -4.9203083 -0.76519845 0 0 Z M-13.67578125 7.1875 C-15.86149013 10.17914873 -16.19633906 12.33500425 -16 16 C-13.83279234 20.33441531 -11.55165684 23.20050776 -7 25 C-2.49084613 25 -0.58761132 24.4981922 2.875 21.5625 C5.65231105 18.21338962 6.18589974 16.86625738 5.8125 12.625 C5.41887546 9.6751872 5.05143891 8.08573152 3.5 5.5 C-2.83407215 1.69955671 -8.41312114 1.88803807 -13.67578125 7.1875 Z " fill="#B80000" transform="translate(304,241)"/>
<path d="M0 0 C3.89472241 3.71768958 5.78035523 6.55884659 6.1328125 11.98046875 C5.81437079 16.82265595 3.95409388 20.09361081 0.5 23.375 C-3.71880107 26.11722069 -7.04095775 26.33620625 -12 26 C-16.63696928 24.27250164 -19.66107692 22.40797042 -22 18 C-22.71278427 13.2569869 -23.1178507 8.39604883 -21.046875 3.95703125 C-15.9074439 -2.62989786 -7.2379868 -4.19041341 0 0 Z M-17.875 5.6875 C-19.53768709 9.10524568 -19.6581974 12.32140789 -19 16 C-17.18482784 19.09251553 -15.71355858 20.58688714 -12.625 22.375 C-8.14652764 23.44130294 -5.18181929 22.69834776 -1.25 20.375 C1.65018363 17.31369506 2.42500349 15.1687247 3 11 C1.69891011 7.43912241 0.18700518 4.16261066 -3 2 C-9.2755434 0.34230929 -13.07032923 1.3632963 -17.875 5.6875 Z " fill="#B80000" transform="translate(256,199)"/>
<path d="M0 0 C3.72320104 1.66265085 5.55225944 4.14345285 7.4375 7.75 C8.28587128 12.65170075 8.50510623 17.47394758 5.8828125 21.875 C3.29374266 25.0615475 1.49847311 26.84297437 -2.609375 27.2734375 C-12.13348083 27.58143097 -12.13348083 27.58143097 -15.625 24.75 C-19.49071702 20.2739066 -20.45469081 17.08585797 -20.3203125 11.25 C-19.70905044 6.95625675 -17.32934154 4.2239312 -14.2265625 1.3671875 C-9.90694351 -1.28521012 -4.87487692 -0.6908248 0 0 Z M-16.375 8.8125 C-17.33620615 12.17672152 -16.82844946 14.62702719 -16 18 C-14.17660948 20.70567626 -12.92542564 22.53728718 -10 24 C-4.30535375 24.47613576 -4.30535375 24.47613576 0.875 22.4375 C3.61614793 19.29324208 4.43902802 17.13716835 5 13 C3.91729729 9.39099097 2.78512195 6.90143631 0.3125 4.0625 C-6.69636919 0.84220875 -11.92625728 2.94824824 -16.375 8.8125 Z " fill="#B80000" transform="translate(122,301)"/>
<path d="M0 0 C3.0625 0.1875 3.0625 0.1875 5.0625 2.1875 C4.73278521 5.48464793 4.4398161 6.8101839 2.0625 9.1875 C-1.23464793 8.85778521 -2.5601839 8.5648161 -4.9375 6.1875 C-4.21574268 0.26908996 -4.21574268 0.26908996 0 0 Z " fill="#030000" transform="translate(165.9375,304.8125)"/>
</svg>
